<svg width="114" height="65" viewBox="0 0 114 65" fill="none" xmlns="http://www.w3.org/2000/svg">
<rect width="114" height="65" fill="#F5F5F5"/>
<g filter="url(#filter0_d_0_1)">
<rect width="105" height="57" fill="#F76030"/>
<path d="M6.88494 25V14.8182H10.902C11.6742 14.8182 12.3321 14.9657 12.8757 15.2607C13.4193 15.5523 13.8336 15.9583 14.1186 16.4787C14.407 16.9957 14.5511 17.5923 14.5511 18.2685C14.5511 18.9446 14.4053 19.5412 14.1136 20.0582C13.822 20.5753 13.3994 20.978 12.8459 21.2663C12.2957 21.5547 11.6295 21.6989 10.8473 21.6989H8.28693V19.9737H10.4993C10.9136 19.9737 11.255 19.9025 11.5234 19.7599C11.7952 19.6141 11.9974 19.4136 12.13 19.1584C12.2659 18.8999 12.3338 18.6032 12.3338 18.2685C12.3338 17.9304 12.2659 17.6354 12.13 17.3835C11.9974 17.1283 11.7952 16.9311 11.5234 16.7919C11.2517 16.6494 10.907 16.5781 10.4893 16.5781H9.03764V25H6.88494ZM15.9096 25V17.3636H18.0275V25H15.9096ZM16.9735 16.3793C16.6587 16.3793 16.3886 16.2749 16.1632 16.0661C15.9411 15.8539 15.8301 15.6004 15.8301 15.3054C15.8301 15.0137 15.9411 14.7635 16.1632 14.5547C16.3886 14.3426 16.6587 14.2365 16.9735 14.2365C17.2884 14.2365 17.5569 14.3426 17.7789 14.5547C18.0043 14.7635 18.117 15.0137 18.117 15.3054C18.117 15.6004 18.0043 15.8539 17.7789 16.0661C17.5569 16.2749 17.2884 16.3793 16.9735 16.3793ZM23.1644 28.0227C22.4783 28.0227 21.89 27.9283 21.3995 27.7393C20.9123 27.5537 20.5245 27.3002 20.2362 26.9787C19.9478 26.6572 19.7605 26.2959 19.6744 25.8949L21.6332 25.6314C21.6928 25.7839 21.7873 25.9264 21.9165 26.0589C22.0458 26.1915 22.2165 26.2976 22.4286 26.3771C22.6441 26.46 22.9059 26.5014 23.2141 26.5014C23.6748 26.5014 24.0543 26.3887 24.3526 26.1634C24.6542 25.9413 24.805 25.5684 24.805 25.0447V23.6477H24.7156C24.6228 23.8598 24.4835 24.0604 24.2979 24.2493C24.1123 24.4382 23.8737 24.5923 23.582 24.7116C23.2904 24.831 22.9424 24.8906 22.538 24.8906C21.9646 24.8906 21.4426 24.758 20.9719 24.4929C20.5046 24.2244 20.1317 23.8151 19.8533 23.2649C19.5782 22.7114 19.4407 22.0121 19.4407 21.1669C19.4407 20.3018 19.5816 19.5793 19.8633 18.9993C20.145 18.4193 20.5195 17.9851 20.9869 17.6967C21.4575 17.4084 21.9729 17.2642 22.533 17.2642C22.9606 17.2642 23.3185 17.3371 23.6069 17.483C23.8952 17.6255 24.1272 17.8045 24.3029 18.0199C24.4819 18.232 24.6194 18.4408 24.7156 18.6463H24.7951V17.3636H26.8981V25.0746C26.8981 25.7242 26.739 26.2678 26.4208 26.7053C26.1026 27.1428 25.6618 27.4709 25.0984 27.6896C24.5382 27.9117 23.8936 28.0227 23.1644 28.0227ZM23.2092 23.2997C23.5505 23.2997 23.8389 23.2152 24.0742 23.0462C24.3129 22.8738 24.4951 22.6286 24.6211 22.3104C24.7504 21.9889 24.815 21.6044 24.815 21.157C24.815 20.7095 24.752 20.3217 24.6261 19.9936C24.5001 19.6622 24.3178 19.4053 24.0792 19.223C23.8406 19.0407 23.5505 18.9496 23.2092 18.9496C22.8612 18.9496 22.5678 19.044 22.3292 19.233C22.0906 19.4186 21.9099 19.6771 21.7873 20.0085C21.6647 20.34 21.6033 20.7228 21.6033 21.157C21.6033 21.5978 21.6647 21.9789 21.7873 22.3004C21.9132 22.6186 22.0939 22.8655 22.3292 23.0412C22.5678 23.2135 22.8612 23.2997 23.2092 23.2997ZM38.6149 18.1094C38.5453 17.8674 38.4475 17.6536 38.3216 17.468C38.1956 17.2791 38.0415 17.12 37.8592 16.9908C37.6802 16.8582 37.4747 16.7571 37.2427 16.6875C37.014 16.6179 36.7605 16.5831 36.4821 16.5831C35.9617 16.5831 35.5043 16.7124 35.1099 16.9709C34.7188 17.2294 34.4139 17.6056 34.1951 18.0994C33.9764 18.59 33.867 19.1899 33.867 19.8991C33.867 20.6084 33.9747 21.2116 34.1902 21.7088C34.4056 22.206 34.7105 22.5855 35.1049 22.8473C35.4993 23.1058 35.965 23.2351 36.502 23.2351C36.9892 23.2351 37.4051 23.1489 37.7498 22.9766C38.0978 22.8009 38.363 22.554 38.5453 22.2358C38.7309 21.9176 38.8237 21.5414 38.8237 21.1072L39.2612 21.1719H36.6362V19.5511H40.8968V20.8338C40.8968 21.7287 40.7079 22.4976 40.3301 23.1406C39.9522 23.7803 39.4319 24.2741 38.769 24.6222C38.1061 24.9669 37.3471 25.1392 36.492 25.1392C35.5375 25.1392 34.6989 24.9287 33.9764 24.5078C33.2538 24.0836 32.6904 23.482 32.286 22.7031C31.885 21.9209 31.6845 20.9929 31.6845 19.919C31.6845 19.0937 31.8038 18.358 32.0424 17.7116C32.2844 17.062 32.6225 16.5118 33.0566 16.0611C33.4908 15.6103 33.9963 15.2673 34.573 15.032C35.1497 14.7966 35.7744 14.679 36.4473 14.679C37.024 14.679 37.5609 14.7635 38.0581 14.9325C38.5552 15.0982 38.996 15.3336 39.3805 15.6385C39.7683 15.9434 40.0848 16.3063 40.3301 16.7273C40.5753 17.1449 40.7328 17.6056 40.8024 18.1094H38.6149ZM44.6516 25.1442C44.1644 25.1442 43.7302 25.0597 43.3491 24.8906C42.9679 24.7183 42.6663 24.4647 42.4442 24.13C42.2255 23.7919 42.1161 23.371 42.1161 22.8672C42.1161 22.4429 42.194 22.0866 42.3498 21.7983C42.5056 21.5099 42.7177 21.2779 42.9862 21.1023C43.2546 20.9266 43.5595 20.794 43.9009 20.7045C44.2456 20.6151 44.6069 20.5521 44.9847 20.5156C45.4289 20.4692 45.7868 20.4261 46.0586 20.3864C46.3304 20.3433 46.5276 20.2803 46.6502 20.1974C46.7728 20.1146 46.8342 19.992 46.8342 19.8295V19.7997C46.8342 19.4848 46.7347 19.2412 46.5359 19.0689C46.3403 18.8965 46.0619 18.8104 45.7006 18.8104C45.3195 18.8104 45.0162 18.8949 44.7908 19.0639C44.5655 19.2296 44.4163 19.4384 44.3434 19.6903L42.3846 19.5312C42.484 19.0672 42.6796 18.6662 42.9712 18.3281C43.2629 17.9867 43.6391 17.7249 44.0998 17.5426C44.5638 17.357 45.1007 17.2642 45.7106 17.2642C46.1348 17.2642 46.5408 17.3139 46.9286 17.4134C47.3197 17.5128 47.6661 17.6669 47.9677 17.8757C48.2726 18.0845 48.5129 18.353 48.6886 18.6811C48.8642 19.0059 48.9521 19.3954 48.9521 19.8494V25H46.9435V23.9411H46.8839C46.7612 24.1797 46.5972 24.3902 46.3917 24.5724C46.1862 24.7514 45.9393 24.8923 45.6509 24.995C45.3626 25.0945 45.0295 25.1442 44.6516 25.1442ZM45.2582 23.6825C45.5697 23.6825 45.8448 23.6212 46.0835 23.4986C46.3221 23.3726 46.5094 23.2036 46.6452 22.9915C46.7811 22.7794 46.8491 22.5391 46.8491 22.2706V21.4602C46.7828 21.5033 46.6916 21.5431 46.5756 21.5795C46.463 21.6127 46.3353 21.6442 46.1928 21.674C46.0503 21.7005 45.9078 21.7254 45.7653 21.7486C45.6228 21.7685 45.4935 21.7867 45.3775 21.8033C45.1289 21.8397 44.9118 21.8977 44.7262 21.9773C44.5406 22.0568 44.3964 22.1645 44.2937 22.3004C44.1909 22.433 44.1396 22.5987 44.1396 22.7976C44.1396 23.0859 44.244 23.3063 44.4528 23.4588C44.6649 23.608 44.9334 23.6825 45.2582 23.6825ZM50.5952 25V17.3636H52.6136V18.7109H52.7031C52.8622 18.2635 53.1274 17.9105 53.4986 17.652C53.8698 17.3935 54.3139 17.2642 54.831 17.2642C55.3546 17.2642 55.8004 17.3951 56.1683 17.657C56.5362 17.9155 56.7815 18.2668 56.9041 18.7109H56.9837C57.1394 18.2734 57.4212 17.9238 57.8288 17.6619C58.2398 17.3968 58.7254 17.2642 59.2855 17.2642C59.9981 17.2642 60.5765 17.4912 61.0206 17.9453C61.468 18.3961 61.6918 19.0357 61.6918 19.8643V25H59.5788V20.282C59.5788 19.8577 59.4661 19.5395 59.2408 19.3274C59.0154 19.1153 58.7337 19.0092 58.3956 19.0092C58.0111 19.0092 57.7112 19.1319 57.4957 19.3771C57.2803 19.6191 57.1726 19.9389 57.1726 20.3366V25H55.1193V20.2372C55.1193 19.8627 55.0116 19.5644 54.7962 19.3423C54.584 19.1203 54.304 19.0092 53.956 19.0092C53.7206 19.0092 53.5085 19.0689 53.3196 19.1882C53.134 19.3042 52.9865 19.4683 52.8771 19.6804C52.7678 19.8892 52.7131 20.1345 52.7131 20.4162V25H50.5952ZM66.8448 25.1491C66.0593 25.1491 65.3832 24.9901 64.8164 24.6719C64.253 24.3504 63.8188 23.8963 63.5138 23.3097C63.2089 22.7197 63.0565 22.022 63.0565 21.2166C63.0565 20.4311 63.2089 19.7417 63.5138 19.1484C63.8188 18.5552 64.248 18.0928 64.8015 17.7614C65.3583 17.4299 66.0112 17.2642 66.7603 17.2642C67.2641 17.2642 67.7331 17.3454 68.1673 17.5078C68.6048 17.6669 68.9859 17.9072 69.3107 18.2287C69.6388 18.5502 69.8941 18.9545 70.0763 19.4418C70.2586 19.9257 70.3498 20.4924 70.3498 21.142V21.7237H63.9016V20.4112H68.3562C68.3562 20.1063 68.2899 19.8362 68.1573 19.6009C68.0247 19.3655 67.8408 19.1816 67.6055 19.049C67.3735 18.9131 67.1033 18.8452 66.7951 18.8452C66.4736 18.8452 66.1886 18.9197 65.94 19.0689C65.6947 19.2147 65.5025 19.4119 65.3633 19.6605C65.2241 19.9058 65.1528 20.1792 65.1495 20.4808V21.7287C65.1495 22.1065 65.2191 22.433 65.3583 22.7081C65.5008 22.9832 65.7013 23.1953 65.9599 23.3445C66.2184 23.4936 66.525 23.5682 66.8796 23.5682C67.1149 23.5682 67.3304 23.535 67.5259 23.4688C67.7215 23.4025 67.8888 23.303 68.0281 23.1705C68.1673 23.0379 68.2733 22.8755 68.3462 22.6832L70.305 22.8125C70.2056 23.2831 70.0018 23.6941 69.6935 24.0455C69.3886 24.3935 68.9942 24.6652 68.5103 24.8608C68.0297 25.053 67.4746 25.1491 66.8448 25.1491Z" fill="#F5F5F5"/>
</g>
<defs>
<filter id="filter0_d_0_1" x="0" y="0" width="114" height="65" filterUnits="userSpaceOnUse" color-interpolation-filters="sRGB">
<feFlood flood-opacity="0" result="BackgroundImageFix"/>
<feColorMatrix in="SourceAlpha" type="matrix" values="0 0 0 0 0 0 0 0 0 0 0 0 0 0 0 0 0 0 127 0" result="hardAlpha"/>
<feOffset dx="5" dy="4"/>
<feGaussianBlur stdDeviation="2"/>
<feComposite in2="hardAlpha" operator="out"/>
<feColorMatrix type="matrix" values="0 0 0 0 0 0 0 0 0 0 0 0 0 0 0 0 0 0 0.25 0"/>
<feBlend mode="normal" in2="BackgroundImageFix" result="effect1_dropShadow_0_1"/>
<feBlend mode="normal" in="SourceGraphic" in2="effect1_dropShadow_0_1" result="shape"/>
</filter>
</defs>
</svg>
